<?xml version="1.0" encoding="UTF-8"?>
<svg id="Layer_1" data-name="Layer 1" xmlns="http://www.w3.org/2000/svg" viewBox="0 0 1024 840.87">
  <defs>
    <style>
      .cls-1 {
        fill: #17a8b1;
      }

      .cls-2 {
        fill: #21bcc3;
      }

      .cls-3 {
        fill: #ff8500;
        opacity: .3;
      }

      .cls-4 {
        fill: #e3166d;
      }

      .cls-5 {
        fill: #dc156c;
      }

      .cls-6 {
        fill: #f4ad2b;
      }

      .cls-7 {
        opacity: .13;
      }

      .cls-8 {
        fill: #f7c736;
      }

      .cls-9 {
        opacity: .1;
      }

      .cls-10 {
        opacity: .19;
      }
    </style>
  </defs>
  <polygon class="cls-5" points="489.94 210.59 489.94 714.09 377.09 633.31 377.09 210.59 489.94 210.59"/>
  <polygon class="cls-5" points="636.73 210.58 484.75 40.18 132.74 40.18 231.76 210.58 636.73 210.58"/>
  <polygon class="cls-2" points="441 40.18 592.98 210.58 778.34 210.58 868.15 40.18 441 40.18"/>
  <polygon class="cls-2" points="522.55 562.37 489.94 540.05 489.94 210.59 596.23 210.59 597.18 613.44 597.24 646.52 597.58 790.87 522.55 737.34 522.55 562.37"/>
  <polygon class="cls-8" points="597.58 613.74 597.58 790.87 489.94 714.09 489.94 539.13 597.18 613.44 597.58 613.74"/>
  <rect class="cls-10" x="377.1" y="210.58" width="219.14" height="35.88"/>
  <polygon class="cls-9" points="489.94 210.59 489.94 646.74 454.05 621.06 454.05 210.59 489.94 210.59"/>
  <polygon class="cls-3" points="522.55 562.37 522.55 737.34 489.94 714.09 489.94 540.05 522.55 562.37"/>
  <polygon class="cls-9" points="522.55 210.59 522.55 562.37 489.94 540.05 489.94 210.59 522.55 210.59"/>
  <polygon class="cls-9" points="489.94 714.09 522.55 737.34 522.55 737.75 489.94 714.09"/>
  <polygon class="cls-7" points="441 40.18 484.75 40.18 636.73 210.58 592.98 210.58 441 40.18"/>
  <polygon class="cls-3" points="597.58 613.74 597.58 646.74 597.24 646.52 489.94 574.77 489.94 540.05 597.18 613.44 597.58 613.74"/>
  <polygon class="cls-6" points="652.45 639.49 652.45 678.64 686.99 700.13 686.99 664.05 652.45 639.49"/>
  <polygon class="cls-6" points="412.2 715.48 412.2 770.48 460.73 800.68 460.73 749.99 412.2 715.48"/>
  <rect class="cls-6" x="933.77" y="40.18" width="39.15" height="39.15"/>
  <rect class="cls-6" x="868.15" y="120.78" width="55.26" height="55.26"/>
  <rect class="cls-6" x="51.08" y="104.1" width="39.15" height="39.15"/>
  <rect class="cls-4" x="209.96" y="236.58" width="39.15" height="39.15"/>
  <rect class="cls-1" x="88.69" y="200.89" width="55.26" height="55.26"/>
</svg>